<svg width="670" height="81" viewBox="0 0 670 81" fill="none" xmlns="http://www.w3.org/2000/svg">
<path d="M445 6H666V76H445V6Z" fill="#57B8FF"/>
<path d="M0.5 6.5H444.5V75.5H0.5V6.5Z" fill="white" stroke="#CCCCCC"/>
<path d="M26.1418 48V43.14L20.1658 35.04H22.9738L27.3478 40.53L31.6678 35.04H34.5298L28.5358 43.158V48H26.1418ZM36.6969 48C36.2409 48 35.8269 47.886 35.4549 47.658C35.0829 47.43 34.7829 47.13 34.5549 46.758C34.3269 46.386 34.2129 45.972 34.2129 45.516V40.044C34.2129 39.588 34.3269 39.174 34.5549 38.802C34.7829 38.43 35.0829 38.13 35.4549 37.902C35.8269 37.674 36.2409 37.56 36.6969 37.56H42.3309C42.7869 37.56 43.2009 37.674 43.5729 37.902C43.9569 38.13 44.2569 38.43 44.4729 38.802C44.7009 39.174 44.8149 39.588 44.8149 40.044V45.516C44.8149 45.972 44.7009 46.386 44.4729 46.758C44.2569 47.13 43.9629 47.43 43.5909 47.658C43.2189 47.886 42.7989 48 42.3309 48H36.6969ZM36.7869 45.642H42.2409C42.3009 45.642 42.3489 45.624 42.3849 45.588C42.4329 45.54 42.4569 45.486 42.4569 45.426V40.134C42.4569 40.074 42.4329 40.026 42.3849 39.99C42.3489 39.942 42.3009 39.918 42.2409 39.918H36.7869C36.7269 39.918 36.6729 39.942 36.6249 39.99C36.5889 40.026 36.5709 40.074 36.5709 40.134V45.426C36.5709 45.486 36.5889 45.54 36.6249 45.588C36.6729 45.624 36.7269 45.642 36.7869 45.642ZM48.7212 48C48.2652 48 47.8452 47.886 47.4612 47.658C47.0892 47.43 46.7892 47.13 46.5612 46.758C46.3452 46.386 46.2372 45.972 46.2372 45.516V37.56H48.5952V45.426C48.5952 45.486 48.6132 45.54 48.6492 45.588C48.6972 45.624 48.7512 45.642 48.8112 45.642H54.2652C54.3252 45.642 54.3732 45.624 54.4092 45.588C54.4572 45.54 54.4812 45.486 54.4812 45.426V37.56H56.8392V45.516C56.8392 45.972 56.7252 46.386 56.4972 46.758C56.2812 47.13 55.9872 47.43 55.6152 47.658C55.2432 47.886 54.8232 48 54.3552 48H48.7212ZM58.7348 48V40.044C58.7348 39.588 58.8488 39.174 59.0768 38.802C59.3048 38.43 59.6048 38.13 59.9768 37.902C60.3608 37.674 60.7748 37.56 61.2188 37.56H67.0148V39.918H61.3088C61.2488 39.918 61.1948 39.942 61.1468 39.99C61.1108 40.026 61.0928 40.074 61.0928 40.134V48H58.7348ZM73.7491 48V35.04H85.6831V37.434H76.1431V40.314H83.8111V42.726H76.1431V45.606H85.6831V48H73.7491ZM87.4583 48V37.56H100.4C100.868 37.56 101.288 37.674 101.66 37.902C102.032 38.13 102.326 38.43 102.542 38.802C102.77 39.174 102.884 39.588 102.884 40.044V48H100.544V40.134C100.544 40.074 100.52 40.026 100.472 39.99C100.424 39.942 100.37 39.918 100.31 39.918H96.5843C96.5243 39.918 96.4703 39.942 96.4223 39.99C96.3863 40.026 96.3683 40.074 96.3683 40.134V48H93.9923V40.134C93.9923 40.074 93.9683 40.026 93.9203 39.99C93.8843 39.942 93.8363 39.918 93.7763 39.918H90.0323C89.9723 39.918 89.9183 39.942 89.8703 39.99C89.8343 40.026 89.8163 40.074 89.8163 40.134V48H87.4583ZM107.115 48C106.659 48 106.239 47.886 105.855 47.658C105.483 47.43 105.183 47.13 104.955 46.758C104.739 46.386 104.631 45.972 104.631 45.516V41.592H112.875V40.134C112.875 40.074 112.851 40.026 112.803 39.99C112.767 39.942 112.719 39.918 112.659 39.918H104.631V37.56H112.749C113.205 37.56 113.619 37.674 113.991 37.902C114.375 38.13 114.675 38.43 114.891 38.802C115.119 39.174 115.233 39.588 115.233 40.044V48H107.115ZM107.205 45.642H112.875V43.716H106.989V45.426C106.989 45.486 107.007 45.54 107.043 45.588C107.091 45.624 107.145 45.642 107.205 45.642ZM117.129 48V37.56H119.487V48H117.129ZM117.129 36.516V34.14H119.487V36.516H117.129ZM123.973 48C123.517 48 123.103 47.886 122.731 47.658C122.359 47.43 122.059 47.13 121.831 46.758C121.603 46.386 121.489 45.972 121.489 45.516V34.122H123.865V45.426C123.865 45.486 123.883 45.54 123.919 45.588C123.967 45.624 124.021 45.642 124.081 45.642H126.079V48H123.973ZM132.97 48V37.542C132.97 37.086 133.084 36.672 133.312 36.3C133.54 35.916 133.84 35.61 134.212 35.382C134.596 35.154 135.016 35.04 135.472 35.04H143.41C143.866 35.04 144.286 35.154 144.67 35.382C145.054 35.61 145.36 35.916 145.588 36.3C145.816 36.672 145.93 37.086 145.93 37.542V48H143.536V43.644H135.346V48H132.97ZM135.346 41.268H143.536V37.65C143.536 37.59 143.512 37.542 143.464 37.506C143.416 37.458 143.362 37.434 143.302 37.434H135.562C135.502 37.434 135.448 37.458 135.4 37.506C135.364 37.542 135.346 37.59 135.346 37.65V41.268ZM149.871 48C149.403 48 148.983 47.886 148.611 47.658C148.239 47.43 147.939 47.13 147.711 46.758C147.495 46.386 147.387 45.972 147.387 45.516V40.044C147.387 39.588 147.495 39.174 147.711 38.802C147.939 38.43 148.239 38.13 148.611 37.902C148.983 37.674 149.403 37.56 149.871 37.56H155.649V34.14H158.007V48H149.871ZM149.979 45.642H155.433C155.493 45.642 155.541 45.624 155.577 45.588C155.625 45.54 155.649 45.486 155.649 45.426V40.134C155.649 40.074 155.625 40.026 155.577 39.99C155.541 39.942 155.493 39.918 155.433 39.918H149.979C149.919 39.918 149.865 39.942 149.817 39.99C149.781 40.026 149.763 40.074 149.763 40.134V45.426C149.763 45.486 149.781 45.54 149.817 45.588C149.865 45.624 149.919 45.642 149.979 45.642ZM161.877 48C161.409 48 160.989 47.886 160.617 47.658C160.245 47.43 159.945 47.13 159.717 46.758C159.501 46.386 159.393 45.972 159.393 45.516V40.044C159.393 39.588 159.501 39.174 159.717 38.802C159.945 38.43 160.245 38.13 160.617 37.902C160.989 37.674 161.409 37.56 161.877 37.56H167.655V34.14H170.013V48H161.877ZM161.985 45.642H167.439C167.499 45.642 167.547 45.624 167.583 45.588C167.631 45.54 167.655 45.486 167.655 45.426V40.134C167.655 40.074 167.631 40.026 167.583 39.99C167.547 39.942 167.499 39.918 167.439 39.918H161.985C161.925 39.918 161.871 39.942 161.823 39.99C161.787 40.026 161.769 40.074 161.769 40.134V45.426C161.769 45.486 161.787 45.54 161.823 45.588C161.871 45.624 161.925 45.642 161.985 45.642ZM171.797 48V40.044C171.797 39.588 171.911 39.174 172.139 38.802C172.367 38.43 172.667 38.13 173.039 37.902C173.423 37.674 173.837 37.56 174.281 37.56H180.077V39.918H174.371C174.311 39.918 174.257 39.942 174.209 39.99C174.173 40.026 174.155 40.074 174.155 40.134V48H171.797ZM183.791 48C183.335 48 182.921 47.886 182.549 47.658C182.177 47.43 181.877 47.13 181.649 46.758C181.421 46.386 181.307 45.972 181.307 45.516V40.044C181.307 39.588 181.421 39.174 181.649 38.802C181.877 38.43 182.177 38.13 182.549 37.902C182.921 37.674 183.335 37.56 183.791 37.56H189.425C189.881 37.56 190.295 37.674 190.667 37.902C191.051 38.13 191.351 38.43 191.567 38.802C191.795 39.174 191.909 39.588 191.909 40.044V43.968H183.665V45.426C183.665 45.486 183.683 45.54 183.719 45.588C183.767 45.624 183.821 45.642 183.881 45.642H191.909V48H183.791ZM183.665 41.844H189.551V40.134C189.551 40.074 189.527 40.026 189.479 39.99C189.443 39.942 189.395 39.918 189.335 39.918H183.881C183.821 39.918 183.767 39.942 183.719 39.99C183.683 40.026 183.665 40.074 183.665 40.134V41.844ZM196.077 48C195.621 48 195.207 47.886 194.835 47.658C194.463 47.43 194.163 47.13 193.935 46.758C193.707 46.386 193.593 45.972 193.593 45.516V45.12H195.951V45.426C195.951 45.486 195.969 45.54 196.005 45.588C196.053 45.624 196.107 45.642 196.167 45.642H201.621C201.681 45.642 201.729 45.624 201.765 45.588C201.813 45.54 201.837 45.486 201.837 45.426V44.184C201.837 44.124 201.813 44.076 201.765 44.04C201.729 43.992 201.681 43.968 201.621 43.968H196.077C195.621 43.968 195.207 43.854 194.835 43.626C194.463 43.398 194.163 43.098 193.935 42.726C193.707 42.354 193.593 41.94 193.593 41.484V40.044C193.593 39.588 193.707 39.174 193.935 38.802C194.163 38.43 194.463 38.13 194.835 37.902C195.207 37.674 195.621 37.56 196.077 37.56H201.711C202.179 37.56 202.599 37.674 202.971 37.902C203.343 38.13 203.643 38.43 203.871 38.802C204.099 39.174 204.213 39.588 204.213 40.044V40.44H201.837V40.134C201.837 40.074 201.813 40.026 201.765 39.99C201.729 39.942 201.681 39.918 201.621 39.918H196.167C196.107 39.918 196.053 39.942 196.005 39.99C195.969 40.026 195.951 40.074 195.951 40.134V41.376C195.951 41.436 195.969 41.49 196.005 41.538C196.053 41.574 196.107 41.592 196.167 41.592H201.711C202.179 41.592 202.599 41.706 202.971 41.934C203.343 42.162 203.643 42.462 203.871 42.834C204.099 43.206 204.213 43.62 204.213 44.076V45.516C204.213 45.972 204.099 46.386 203.871 46.758C203.643 47.13 203.343 47.43 202.971 47.658C202.599 47.886 202.179 48 201.711 48H196.077ZM208.416 48C207.96 48 207.546 47.886 207.174 47.658C206.802 47.43 206.502 47.13 206.274 46.758C206.046 46.386 205.932 45.972 205.932 45.516V45.12H208.29V45.426C208.29 45.486 208.308 45.54 208.344 45.588C208.392 45.624 208.446 45.642 208.506 45.642H213.96C214.02 45.642 214.068 45.624 214.104 45.588C214.152 45.54 214.176 45.486 214.176 45.426V44.184C214.176 44.124 214.152 44.076 214.104 44.04C214.068 43.992 214.02 43.968 213.96 43.968H208.416C207.96 43.968 207.546 43.854 207.174 43.626C206.802 43.398 206.502 43.098 206.274 42.726C206.046 42.354 205.932 41.94 205.932 41.484V40.044C205.932 39.588 206.046 39.174 206.274 38.802C206.502 38.43 206.802 38.13 207.174 37.902C207.546 37.674 207.96 37.56 208.416 37.56H214.05C214.518 37.56 214.938 37.674 215.31 37.902C215.682 38.13 215.982 38.43 216.21 38.802C216.438 39.174 216.552 39.588 216.552 40.044V40.44H214.176V40.134C214.176 40.074 214.152 40.026 214.104 39.99C214.068 39.942 214.02 39.918 213.96 39.918H208.506C208.446 39.918 208.392 39.942 208.344 39.99C208.308 40.026 208.29 40.074 208.29 40.134V41.376C208.29 41.436 208.308 41.49 208.344 41.538C208.392 41.574 208.446 41.592 208.506 41.592H214.05C214.518 41.592 214.938 41.706 215.31 41.934C215.682 42.162 215.982 42.462 216.21 42.834C216.438 43.206 216.552 43.62 216.552 44.076V45.516C216.552 45.972 216.438 46.386 216.21 46.758C215.982 47.13 215.682 47.43 215.31 47.658C214.938 47.886 214.518 48 214.05 48H208.416Z" fill="#555555"/>
<path d="M483.255 48C482.799 48 482.379 47.886 481.995 47.658C481.623 47.43 481.323 47.13 481.095 46.758C480.867 46.374 480.753 45.954 480.753 45.498V44.508H483.129V45.39C483.129 45.45 483.147 45.504 483.183 45.552C483.231 45.588 483.285 45.606 483.345 45.606H491.103C491.163 45.606 491.211 45.588 491.247 45.552C491.295 45.504 491.319 45.45 491.319 45.39V42.924C491.319 42.864 491.295 42.816 491.247 42.78C491.211 42.744 491.163 42.726 491.103 42.726H483.255C482.799 42.726 482.379 42.612 481.995 42.384C481.623 42.156 481.323 41.856 481.095 41.484C480.867 41.1 480.753 40.674 480.753 40.206V37.542C480.753 37.086 480.867 36.672 481.095 36.3C481.323 35.916 481.623 35.61 481.995 35.382C482.379 35.154 482.799 35.04 483.255 35.04H491.211C491.667 35.04 492.081 35.154 492.453 35.382C492.837 35.61 493.143 35.916 493.371 36.3C493.599 36.672 493.713 37.086 493.713 37.542V38.532H491.319V37.65C491.319 37.59 491.295 37.542 491.247 37.506C491.211 37.458 491.163 37.434 491.103 37.434H483.345C483.285 37.434 483.231 37.458 483.183 37.506C483.147 37.542 483.129 37.59 483.129 37.65V40.116C483.129 40.176 483.147 40.224 483.183 40.26C483.231 40.296 483.285 40.314 483.345 40.314H491.211C491.667 40.314 492.081 40.428 492.453 40.656C492.837 40.884 493.143 41.19 493.371 41.574C493.599 41.946 493.713 42.366 493.713 42.834V45.498C493.713 45.954 493.599 46.374 493.371 46.758C493.143 47.13 492.837 47.43 492.453 47.658C492.081 47.886 491.667 48 491.211 48H483.255ZM498.108 48C497.652 48 497.232 47.886 496.848 47.658C496.476 47.43 496.176 47.13 495.948 46.758C495.732 46.386 495.624 45.972 495.624 45.516V37.56H497.982V45.426C497.982 45.486 498 45.54 498.036 45.588C498.084 45.624 498.138 45.642 498.198 45.642H503.652C503.712 45.642 503.76 45.624 503.796 45.588C503.844 45.54 503.868 45.486 503.868 45.426V37.56H506.226V45.516C506.226 45.972 506.112 46.386 505.884 46.758C505.668 47.13 505.374 47.43 505.002 47.658C504.63 47.886 504.21 48 503.742 48H498.108ZM507.753 48V34.14H510.111V37.56H515.871C516.327 37.56 516.741 37.674 517.113 37.902C517.497 38.13 517.797 38.43 518.013 38.802C518.241 39.174 518.355 39.588 518.355 40.044V45.516C518.355 45.972 518.241 46.386 518.013 46.758C517.797 47.13 517.497 47.43 517.113 47.658C516.741 47.886 516.327 48 515.871 48H507.753ZM510.327 45.642H515.781C515.841 45.642 515.889 45.624 515.925 45.588C515.973 45.54 515.997 45.486 515.997 45.426V40.134C515.997 40.074 515.973 40.026 515.925 39.99C515.889 39.942 515.841 39.918 515.781 39.918H510.327C510.267 39.918 510.213 39.942 510.165 39.99C510.129 40.026 510.111 40.074 510.111 40.134V45.426C510.111 45.486 510.129 45.54 510.165 45.588C510.213 45.624 510.267 45.642 510.327 45.642ZM522.135 48C521.679 48 521.265 47.886 520.893 47.658C520.521 47.43 520.221 47.13 519.993 46.758C519.765 46.386 519.651 45.972 519.651 45.516V45.12H522.009V45.426C522.009 45.486 522.027 45.54 522.063 45.588C522.111 45.624 522.165 45.642 522.225 45.642H527.679C527.739 45.642 527.787 45.624 527.823 45.588C527.871 45.54 527.895 45.486 527.895 45.426V44.184C527.895 44.124 527.871 44.076 527.823 44.04C527.787 43.992 527.739 43.968 527.679 43.968H522.135C521.679 43.968 521.265 43.854 520.893 43.626C520.521 43.398 520.221 43.098 519.993 42.726C519.765 42.354 519.651 41.94 519.651 41.484V40.044C519.651 39.588 519.765 39.174 519.993 38.802C520.221 38.43 520.521 38.13 520.893 37.902C521.265 37.674 521.679 37.56 522.135 37.56H527.769C528.237 37.56 528.657 37.674 529.029 37.902C529.401 38.13 529.701 38.43 529.929 38.802C530.157 39.174 530.271 39.588 530.271 40.044V40.44H527.895V40.134C527.895 40.074 527.871 40.026 527.823 39.99C527.787 39.942 527.739 39.918 527.679 39.918H522.225C522.165 39.918 522.111 39.942 522.063 39.99C522.027 40.026 522.009 40.074 522.009 40.134V41.376C522.009 41.436 522.027 41.49 522.063 41.538C522.111 41.574 522.165 41.592 522.225 41.592H527.769C528.237 41.592 528.657 41.706 529.029 41.934C529.401 42.162 529.701 42.462 529.929 42.834C530.157 43.206 530.271 43.62 530.271 44.076V45.516C530.271 45.972 530.157 46.386 529.929 46.758C529.701 47.13 529.401 47.43 529.029 47.658C528.657 47.886 528.237 48 527.769 48H522.135ZM534.177 48C533.721 48 533.307 47.886 532.935 47.658C532.563 47.43 532.263 47.13 532.035 46.758C531.807 46.386 531.693 45.972 531.693 45.516V40.044C531.693 39.588 531.807 39.174 532.035 38.802C532.263 38.43 532.563 38.13 532.935 37.902C533.307 37.674 533.721 37.56 534.177 37.56H542.277V39.918H534.267C534.207 39.918 534.153 39.942 534.105 39.99C534.069 40.026 534.051 40.074 534.051 40.134V45.426C534.051 45.486 534.069 45.54 534.105 45.588C534.153 45.624 534.207 45.642 534.267 45.642H542.295V48H534.177ZM544.104 48V40.044C544.104 39.588 544.218 39.174 544.446 38.802C544.674 38.43 544.974 38.13 545.346 37.902C545.73 37.674 546.144 37.56 546.588 37.56H552.384V39.918H546.678C546.618 39.918 546.564 39.942 546.516 39.99C546.48 40.026 546.462 40.074 546.462 40.134V48H544.104ZM553.754 48V37.56H556.112V48H553.754ZM553.754 36.516V34.14H556.112V36.516H553.754ZM557.781 48V34.14H560.139V37.56H565.899C566.355 37.56 566.769 37.674 567.141 37.902C567.525 38.13 567.825 38.43 568.041 38.802C568.269 39.174 568.383 39.588 568.383 40.044V45.516C568.383 45.972 568.269 46.386 568.041 46.758C567.825 47.13 567.525 47.43 567.141 47.658C566.769 47.886 566.355 48 565.899 48H557.781ZM560.355 45.642H565.809C565.869 45.642 565.917 45.624 565.953 45.588C566.001 45.54 566.025 45.486 566.025 45.426V40.134C566.025 40.074 566.001 40.026 565.953 39.99C565.917 39.942 565.869 39.918 565.809 39.918H560.355C560.295 39.918 560.241 39.942 560.193 39.99C560.157 40.026 560.139 40.074 560.139 40.134V45.426C560.139 45.486 560.157 45.54 560.193 45.588C560.241 45.624 560.295 45.642 560.355 45.642ZM572.216 48C571.76 48 571.346 47.886 570.974 47.658C570.602 47.43 570.302 47.13 570.074 46.758C569.846 46.386 569.732 45.972 569.732 45.516V40.044C569.732 39.588 569.846 39.174 570.074 38.802C570.302 38.43 570.602 38.13 570.974 37.902C571.346 37.674 571.76 37.56 572.216 37.56H577.85C578.306 37.56 578.72 37.674 579.092 37.902C579.476 38.13 579.776 38.43 579.992 38.802C580.22 39.174 580.334 39.588 580.334 40.044V43.968H572.09V45.426C572.09 45.486 572.108 45.54 572.144 45.588C572.192 45.624 572.246 45.642 572.306 45.642H580.334V48H572.216ZM572.09 41.844H577.976V40.134C577.976 40.074 577.952 40.026 577.904 39.99C577.868 39.942 577.82 39.918 577.76 39.918H572.306C572.246 39.918 572.192 39.942 572.144 39.99C572.108 40.026 572.09 40.074 572.09 40.134V41.844ZM587.787 48V35.04H590.397L598.353 44.508V35.04H600.747V48H598.137L590.163 38.514V48H587.787ZM605.158 48C604.702 48 604.288 47.886 603.916 47.658C603.544 47.43 603.244 47.13 603.016 46.758C602.788 46.386 602.674 45.972 602.674 45.516V40.044C602.674 39.588 602.788 39.174 603.016 38.802C603.244 38.43 603.544 38.13 603.916 37.902C604.288 37.674 604.702 37.56 605.158 37.56H610.792C611.248 37.56 611.662 37.674 612.034 37.902C612.418 38.13 612.718 38.43 612.934 38.802C613.162 39.174 613.276 39.588 613.276 40.044V45.516C613.276 45.972 613.162 46.386 612.934 46.758C612.718 47.13 612.424 47.43 612.052 47.658C611.68 47.886 611.26 48 610.792 48H605.158ZM605.248 45.642H610.702C610.762 45.642 610.81 45.624 610.846 45.588C610.894 45.54 610.918 45.486 610.918 45.426V40.134C610.918 40.074 610.894 40.026 610.846 39.99C610.81 39.942 610.762 39.918 610.702 39.918H605.248C605.188 39.918 605.134 39.942 605.086 39.99C605.05 40.026 605.032 40.074 605.032 40.134V45.426C605.032 45.486 605.05 45.54 605.086 45.588C605.134 45.624 605.188 45.642 605.248 45.642ZM617.88 48L613.776 37.56H616.278L618.816 43.716L621.48 37.56H623.928L626.772 43.752L629.13 37.56H631.632L627.708 48H625.872L622.722 41.034L619.716 48H617.88Z" fill="white"/>
</svg>
